<svg xmlns="http://www.w3.org/2000/svg" width="70" height="70" fill="none"><circle cx="35" cy="35" r="35" fill="#1976D2"/><g clip-path="url(#a)"><path fill="#fff" d="M40.76 44.346c-5.141.06-4.118-.412-5.688 4.143-.752 2.197-1.465 4.41-2.192 6.617-.276.847-.421 1.72.662 2.071 1.084.352 1.505-.36 1.816-1.214.848-2.403 1.71-4.8 2.508-7.218a1.244 1.244 0 0 1 1.42-1.003c2.508.06 5.016 0 7.524 0 1.917 0 2.845-.617 3.166-2.478.501-3.066.938-6.156 1.269-9.25.14-1.32-.452-2.414-1.911-2.695a2.508 2.508 0 0 0-3.08 1.877c-.186.722-.316 3.702-2.744 3.651-1.044 0-1.781 0-2.669.04-.697.036-1.159.352-1.144 1.14.015.787.537 1.068 1.194 1.068 1.003.025 2.007 0 3.01 0 .502 0 1.249 0 1.219.737-.035 1.119.461 2.308-1.179 2.458-1.053.136-2.122.056-3.18.056Zm4.937-14.287a2.508 2.508 0 0 0 2.403 2.608 2.557 2.557 0 0 0 2.623-2.608 2.509 2.509 0 0 0-2.463-2.423 2.421 2.421 0 0 0-2.563 2.423ZM48.26 58a9.587 9.587 0 0 0 5.167-17.668 1.005 1.005 0 0 0-1.524 1.065 1.007 1.007 0 0 0 .44.63 7.58 7.58 0 0 1-4.083 13.966 7.62 7.62 0 0 1-7.524-6.476 1.014 1.014 0 0 0-2.007.291A9.637 9.637 0 0 0 48.26 58ZM19.501 29.377v9.43a.657.657 0 0 1-.591.683 1.585 1.585 0 0 1-1.064-.13.601.601 0 0 1-.25-.297 1.173 1.173 0 0 1-.056-.441v-10.58c0-.366-.206-.526-.587-.531-.381-.005-.602.145-.627.541-.025.397-.035.597-.035.898v9.847a.582.582 0 0 1-.467.673 1.299 1.299 0 0 1-1.294-.176.501.501 0 0 1-.15-.256 1.164 1.164 0 0 1 0-.326V19.906a.406.406 0 0 0-.231-.442.572.572 0 0 0-.612.03.436.436 0 0 0-.115.291V27.4c0 .397-.08.412-.502.547a.577.577 0 0 1-.712-.296.571.571 0 0 1-.066-.24v-8.965a1.38 1.38 0 0 1 .622-1.169c.471-.325 1.029-.5 1.6-.501 1.29-.056 2.584-.05 3.873-.04.592 0 1.184.039 1.771.115a2.006 2.006 0 0 1 1.4.692c.137.203.228.435.265.677.037.24.05.481.036.723v8.161c.015.142.015.285 0 .427a.502.502 0 0 1-.156.276.807.807 0 0 1-.803.095.416.416 0 0 1-.296-.432V19.74c0-.155-.135-.326-.39-.35-.257-.026-.477.08-.502.28-.01.097-.01.194 0 .291l-.06 9.416Zm-4.359-15.591a1.786 1.786 0 1 0 3.572 0 1.786 1.786 0 0 0-3.572 0Zm14.864 0a1.786 1.786 0 1 0 3.571 0 1.786 1.786 0 0 0-3.571 0ZM24.086 12h.969v27.535h-.969V12ZM37.38 26.256c-.076-.195-.14-.396-.216-.596l-.737-2.007a4.54 4.54 0 0 1-.347-1.736c.03-1.028 0-2.061 0-3.095a1.4 1.4 0 0 0-.055-.526 2.559 2.559 0 0 0-1.655-1.58h-4.74a.395.395 0 0 0-.166 0 2.817 2.817 0 0 0-.557.26 2.183 2.183 0 0 0-1.114 1.846c-.03 1.17 0 2.343 0 3.512 0 .15-.024.298-.07.441-.19.562-.401 1.119-.597 1.676-.195.556-.426 1.254-.642 1.876a.396.396 0 0 0 .206.501c.21.106.607.05.692-.11.086-.163.163-.33.23-.502.181-.471.362-.943.548-1.414.185-.472.376-.908.536-1.37.152-.329.243-.682.271-1.043v-2.584a.501.501 0 0 1 .703-.541.471.471 0 0 1 .336.501v2.875a.826.826 0 0 1-.03.245c-.261.753-.527 1.505-.798 2.258-.11.306-.246.607-.361.913-.116.306-.246.752-.387 1.123-.27.723-.566 1.435-.832 2.158-.266.722-.552 1.57-.833 2.357-.06.176-.035.226.15.226h2.564c.361 0 .406.035.406.391v7.169a.737.737 0 0 0 1.129.642c.306-.11.411-.281.411-.678v-7.243a.224.224 0 0 1 .14-.235.225.225 0 0 1 .096-.016 4.14 4.14 0 0 1 .612 0c.075 0 .166.11.196.196a.85.85 0 0 1 0 .3v6.998a.847.847 0 0 0 .15.502.818.818 0 0 0 1.094.146c.29-.12.33-.392.336-.668V32.211c0-.25.04-.286.286-.291h2.709c.16 0 .245-.05.165-.24-.276-.688-.542-1.38-.803-2.073-.26-.692-.501-1.41-.777-2.111l-.963-2.609c-.2-.537-.396-1.073-.597-1.615a1.611 1.611 0 0 1-.14-.467V19.75a.502.502 0 0 1 .185-.386.647.647 0 0 1 .647-.03.502.502 0 0 1 .23.502v2.698a.968.968 0 0 0 .041.341c.22.617.452 1.23.687 1.841.186.502.377.954.567 1.43.07.205.16.403.266.592a.537.537 0 0 0 .692.09c.21-.135.251-.28.136-.572Z"/></g><defs><clipPath id="a"><path fill="#fff" d="M12 12h46v46H12z"/></clipPath></defs></svg>