<svg xmlns="http://www.w3.org/2000/svg" width="70" height="70" fill="none"><circle cx="35" cy="35" r="35" fill="#569E00"/><path fill="#fff" d="M28.55 59.553v-.698h1.401v-.844h-.374c-.264.012-.467-.038-.607-.151a.57.57 0 0 1-.212-.464c.006-.166.035-.33.084-.487l.393-1.344h-.687v-.699h.876l.168-.55h.725l-.162.554h1.332v.699h-1.54l-.438 1.468a.533.533 0 0 0-.019.136c0 .093.067.14.2.14h.261v-1.114h.694v1.114h.844v.699h-.844v.843h.844v.698h-.844v1.181h-.694v-1.18h-1.4Zm3.207-4.043v-.694h1.528v-.498h.703v.498h.65v-.494l.713-.008v.498h.155v.695h-1.519v.524h.54c.33 0 .57.072.722.215a.78.78 0 0 1 .245.597v3.001c0 .357-.103.608-.31.751a.898.898 0 0 1-.6.159h-.207v-.703h.09a.372.372 0 0 0 .197-.06c.086-.056.128-.157.128-.302v-.11h-.805v1.17h-.698v-1.17h-.804v1.17h-.7V56.84a.775.775 0 0 1 .497-.752.82.82 0 0 1 .334-.056h.675v-.525l-1.534.002Zm.724 1.948h.804v-.725h-.38a.417.417 0 0 0-.404.263.381.381 0 0 0-.024.157l.004.305Zm0 1.424h.804v-.725h-.804v.725Zm1.506-1.425h.805v-.305a.387.387 0 0 0-.144-.338c-.073-.053-.2-.079-.381-.079h-.28v.722Zm0 1.421h.805v-.725h-.805v.725Zm2.295.58v-.664h.449V55.57c0-.365.096-.647.29-.844.211-.216.508-.325.89-.325h3.648c.402 0 .712.108.928.325a1.006 1.006 0 0 1 .29.736v3.332h.472v.665h-.555c.02.206.077.353.169.44a.55.55 0 0 0 .355.144v.691h-.049a1.108 1.108 0 0 1-.728-.283 1.124 1.124 0 0 1-.32-.412 2.109 2.109 0 0 1-.136-.585h-4.439c-.037.338-.108.583-.211.736a1.147 1.147 0 0 1-1.02.544v-.694a.584.584 0 0 0 .408-.2.712.712 0 0 0 .113-.385l-.554.003Zm1.165-3.851h4.617v-.113a.345.345 0 0 0-.098-.234c-.093-.098-.243-.148-.449-.148h-3.363c-.267 0-.435.023-.506.069a.37.37 0 0 0-.2.313l-.001.113Zm0 1.057h4.617v-.392h-4.617v.392Zm0 1.076h4.617v-.412h-4.617v.412Zm0 1.054h4.617v-.39h-4.617v.39Zm-6.311-12.291a10.006 10.006 0 1 0 0-20.013 10.006 10.006 0 0 0 0 20.013Zm0 2.858a12.865 12.865 0 1 1 .001-25.732 12.865 12.865 0 0 1-.001 25.733Zm0-8.576a4.288 4.288 0 1 1 0-8.577 4.288 4.288 0 0 1-.003 8.577h.003Zm0-2.859a1.43 1.43 0 1 0 0-2.86 1.43 1.43 0 0 0 0 2.86ZM29.678 24.78a1.429 1.429 0 0 1-2.803.56l-2.4-11.996a1.429 1.429 0 0 0-1.401-1.15h-3.375a1.43 1.43 0 0 1 0-2.858h3.375a4.29 4.29 0 0 1 4.206 3.447l2.404 11.997h-.006Zm22.9 20.294a1.43 1.43 0 0 1-2.858 0V30.78a1.43 1.43 0 0 0-1.43-1.434h-8.577a1.43 1.43 0 0 1 0-2.859h8.578a4.29 4.29 0 0 1 4.288 4.293v14.293Zm-25.73-24.302v-2.86h15.724a4.288 4.288 0 0 1 4.289 4.29v5.717h-2.859v-5.718a1.43 1.43 0 0 0-1.43-1.43H26.849Zm25.734 11.436v2.859h-11.44v-2.859h11.44ZM58.3 43.644v2.86h-8.58v-2.86h8.58Z"/></svg>