<svg xmlns="http://www.w3.org/2000/svg" width="70" height="70" fill="none"><circle cx="35" cy="35" r="35" fill="#B54800"/><path fill="#fff" d="M18.942 58.79c-.68 0-1.274-.596-1.274-1.275v-44.18c0-.68.595-1.275 1.274-1.275.68 0 1.275.595 1.275 1.275V57.43c0 .764-.595 1.36-1.275 1.36Zm34.41-36.45v-.339s0-.085-.085-.085c0 0 0-.085-.085-.085l-.085-.085-.085-.085-.085-.085-.085-.085-.085-.085-.085-.085s-.085 0-.085-.085h-.085l-33.135-9.09c-.68-.17-1.36.254-1.53.934-.339.595.086 1.36.765 1.53l32.2 8.835v2.294h-31.86c-.68 0-1.274.595-1.274 1.275 0 .68.595 1.274 1.274 1.274h3.654v15.378c0 .17 0 .34.085.425a86.716 86.716 0 0 0-4.248 1.614c-.68.255-.935 1.02-.68 1.614.17.51.68.765 1.19.765.17 0 .34 0 .51-.085 10.024-3.993 20.645-6.627 31.435-7.901v5.267c-11.215 2.804-22.09 6.627-32.54 11.555-.595.34-.935 1.02-.595 1.7.255.424.68.764 1.19.764.17 0 .34 0 .51-.085 10.364-4.928 21.24-8.751 32.37-11.47h.254c.68 0 1.275-.595 1.275-1.274V22.34Zm-14.104 5.948h6.627v9.94c-2.209.34-4.418.765-6.627 1.19v-11.13Zm-2.549 11.725c-.764.17-1.614.34-2.379.594V28.288h2.38v11.725ZM25.145 28.288h6.627v12.914a98.77 98.77 0 0 0-6.627 2.04V28.287Zm23.279 9.6v-9.6h2.379v9.26c-.765.086-1.614.17-2.38.34Z"/></svg>