<svg xmlns="http://www.w3.org/2000/svg" width="70" height="70" fill="none"><rect width="70" height="70" fill="#FF8D28" rx="6"/><path fill="#fff" d="M9.343 39.158h5.306a39 39 0 0 0-.533-1.6l1.943-.393c.317.842.558 1.506.723 1.993h4.837v1.714h-1.885c-.64 1.92-1.56 3.544-2.761 4.868 1.303.902 2.911 1.59 4.824 2.063-.703.855-1.168 1.477-1.397 1.866-1.933-.647-3.575-1.502-4.925-2.564-1.359 1.024-3.026 1.904-5.002 2.64-.457-.736-.88-1.35-1.27-1.84 1.9-.593 3.491-1.325 4.774-2.197-1.22-1.358-2.082-2.97-2.59-4.836H9.343v-1.714Zm8.233 1.714h-4.228a8.964 8.964 0 0 0 2.12 3.599 8.712 8.712 0 0 0 2.108-3.6ZM25.3 37.24l1.764.584c-.397.981-.829 1.908-1.295 2.78v9.014h-1.828V43.55c-.41.563-.837 1.096-1.282 1.6a30.486 30.486 0 0 0-.482-2.222c1.32-1.667 2.361-3.563 3.123-5.687Zm7.782 1.726 1.587 1.219a30.727 30.727 0 0 1-4.33 3.955v2.596c0 .635.276.952.826.952h.546c.419 0 .694-.14.825-.419.136-.28.246-1.117.33-2.514.694.22 1.337.407 1.93.559-.152 1.223-.286 2.093-.4 2.609-.11.516-.38.907-.813 1.174-.427.271-1.017.406-1.77.406h-1.092c-1.524 0-2.286-.757-2.286-2.272v-1.74c-.49.327-.994.644-1.51.953a26.172 26.172 0 0 0-1.117-1.663 25.63 25.63 0 0 0 2.627-1.613v-5.877h1.905v4.411c.986-.838 1.9-1.75 2.742-2.736Zm2.273 3.314h1.739V37.19h1.764v5.09h8.722v1.639H42.77c1 1.735 2.684 2.949 5.053 3.643-.38.5-.808 1.083-1.282 1.752-2.666-1.109-4.503-2.907-5.51-5.395h-2.17v3.541l3.275-1.079a22.03 22.03 0 0 0-.013 1.663c-2.51.766-4.024 1.363-4.545 1.79l-.965-1.625c.322-.321.483-.816.483-1.485V43.92h-1.74V42.28Zm9.813-4.99 1.333 1.587a68.517 68.517 0 0 1-5.688 2.844l-1.04-1.37c2.25-1.059 4.05-2.079 5.395-3.06Zm5.484 5.65c0 3.093-.41 5.366-1.231 6.817-.432-.389-.897-.787-1.397-1.193.72-1.278 1.067-3.229 1.041-5.853V38.32h5.028l-.33-.775 1.967-.47.508 1.245h4.533v1.447H50.653v3.174Zm3.974 2.983c.563.85 1.092 1.733 1.587 2.647v-8.068h4.316v1.371l-.876 2.12c.669.826 1.003 1.731 1.003 2.717 0 1.3-.656 1.95-1.967 1.95-.178 0-.377-.011-.597-.033-.051-.457-.153-.99-.305-1.6.263.052.5.077.711.077.38 0 .571-.203.571-.61 0-.698-.347-1.447-1.04-2.246l.863-2.35h-1.181v7.834h-1.498v-1.041l-1.295.66a19.569 19.569 0 0 0-.413-.85c-1.324.478-2.3.871-2.926 1.18l-.673-1.18c.203-.246.305-.585.305-1.016v-6.703h1.346l-.267-.61 1.638-.38c.148.334.285.664.412.99h1.289v5.129h-2.945v1.802l1.155-.444c-.14-.25-.284-.495-.432-.736l1.219-.61Zm-.444-3.897h-1.498v.774h1.498v-.774Zm0 2.64v-.774h-1.498v.774h1.498ZM9.61 20.685c2.962.017 6.736-.06 11.324-.229l.393 1.334-1.765.044.915.54c-.242.279-.504.57-.788.876h1.6v2.005h-1.752v-.672h-7.985v.672H9.8V23.25h1.631a9.969 9.969 0 0 0-.476-.762l1.206-.508-2.133.038a15.867 15.867 0 0 0-.419-1.333Zm6.493 1.219c.258.427.51.876.755 1.346h.953a18 18 0 0 0 1.021-1.403l-2.729.057Zm-3.605.07c.25.372.522.797.818 1.276h1.695a14.9 14.9 0 0 0-.514-.927l1.18-.413-3.18.064Zm-3.041 3.599h3.447c.084-.237.163-.478.235-.724h1.713c-.063.246-.13.487-.203.724h7.02v1.333h-7.508c-.093.22-.193.436-.299.647h6.729v1.092a13.526 13.526 0 0 1-2.495 1.86c1.105.27 2.338.425 3.7.463a23.119 23.119 0 0 0-.837 1.638c-1.82-.165-3.434-.542-4.843-1.13-1.32.55-2.795.978-4.425 1.282-.258-.465-.535-.91-.831-1.333-.254.229-.518.449-.794.66a10.6 10.6 0 0 0-.888-1.485 10.375 10.375 0 0 0 3.154-3.694H9.457v-1.333Zm6.684 4.265c.779-.347 1.462-.74 2.05-1.18h-3.999c.572.465 1.221.859 1.95 1.18Zm-3.358-.501c-.508.69-1.09 1.333-1.745 1.93a24.536 24.536 0 0 0 3.262-.743 10.367 10.367 0 0 1-1.517-1.187Zm15.59-9.223a50.653 50.653 0 0 1 2.374 3.3l-1.688 1.042a36.584 36.584 0 0 0-2.146-3.44l1.46-.902Zm2.361 8.036c.762.313 1.401.554 1.917.724-.059.402-.169.941-.33 1.618-.156.673-.342 1.109-.558 1.308a2.038 2.038 0 0 1-.813.444c-.321.098-.71.146-1.168.146H27.7c-1.422 0-2.133-.72-2.133-2.158v-7.313h1.88v6.729c0 .728.376 1.092 1.13 1.092h.647c.38 0 .677-.064.888-.19a.838.838 0 0 0 .394-.566c.05-.25.127-.86.228-1.834Zm-7.173-4.355 1.74.394a38.887 38.887 0 0 1-1.422 5.599l-1.689-.622c.483-1.54.94-3.33 1.371-5.37Zm9.51.203a43.228 43.228 0 0 1 1.777 4.177l-1.752.724a42.815 42.815 0 0 0-1.714-4.215l1.688-.686Zm4.227-1.294-.343 3.199h.914l.305-3.644h-2.768v-1.498h4.406l-.42 5.142h.724a67.501 67.501 0 0 1-.241 4.735c-.093 1.219-.724 1.837-1.892 1.854-.474.008-1.036.017-1.688.025a12.573 12.573 0 0 0-.267-1.587c.55.043 1.105.064 1.663.064.407 0 .64-.203.699-.61a61.28 61.28 0 0 0 .165-2.983h-3.2l.445-4.697h1.498Zm9.864-1.994v1.537a8.038 8.038 0 0 1-1.65 1.98c.694.229 1.46.39 2.298.482-.102.212-.318.741-.648 1.587-1.193-.203-2.255-.533-3.186-.99-.906.508-1.951.91-3.136 1.206-.237-.524-.5-1.05-.787-1.574.855-.17 1.625-.39 2.31-.66a10.597 10.597 0 0 1-1.498-1.562l.965-.596H40.46v-1.41h6.703Zm-6.855 8.633h2.818v-.914H40.7v-1.473h2.425v-.9h1.676v.9h2.539v1.473H44.8v.914h2.895v1.473h-2.894v1.853h-1.676v-1.853h-2.818v-1.473Zm-5.155-.812a33.521 33.521 0 0 0 2.895-.343c.008.762.021 1.274.038 1.536-.906.102-1.816.237-2.73.406l-.203-1.6Zm8.747-5.04a6.254 6.254 0 0 0 1.486-1.371h-3.11a8.632 8.632 0 0 0 1.624 1.37Zm4.418-1.117h2.241a22.95 22.95 0 0 0-.78-1.65l1.739-.61c.262.44.605 1.075 1.028 1.904l-.997.355h2.724v1.664h-5.955v-1.663Zm12.48-.064v1.663h-2.92v1.904h2.4v6.805h-1.702v-.71h-2.742v.76h-1.701v-6.855h1.917v-5.712h1.828v2.145h2.92Zm-2.222 5.269h-2.742v2.691h2.742v-2.691Zm-6.5-3.276 1.854.368-1.181 4.958 1.08-.172c-.052.796-.081 1.405-.09 1.829a262.1 262.1 0 0 0-5.256.914l-.279-1.93 2.933-.4c.33-1.688.643-3.544.94-5.567Zm-1.879.229c.297 1.202.614 2.72.952 4.557l-1.675.33a71.376 71.376 0 0 0-.902-4.57l1.625-.317Z"/></svg>