<svg xmlns="http://www.w3.org/2000/svg" width="70" height="70" fill="none"><circle cx="35" cy="35" r="35" fill="#008040"/><path fill="#fff" d="M54.312 32.234v23.81a2.292 2.292 0 0 1-2.292 2.293H16.499a2.292 2.292 0 0 1-2.292-2.292v-23.81h4.584v21.518h30.937V32.234h4.584Z"/><path fill="#fff" d="m55.359 39.295-21.1-21.097-21.094 21.097a2.292 2.292 0 1 1-3.243-3.24l24.337-24.34L58.6 36.052a2.293 2.293 0 0 1-3.24 3.243Zm-2.482-25.447h-7.524a2.293 2.293 0 0 0-2.117 3.169 2.292 2.292 0 0 0 2.117 1.415h5.232a2.292 2.292 0 0 1 2.292 2.291v5.553a2.292 2.292 0 0 0 4.583 0v-7.844a4.581 4.581 0 0 0-4.583-4.584Z"/><path fill="#fff" d="M40.181 35.557a4.184 4.184 0 0 1 0 5.917v.003l-5.922 5.921-5.919-5.921a4.188 4.188 0 1 1 5.92-5.92 4.187 4.187 0 0 1 5.921 0Z"/></svg>