<svg xmlns="http://www.w3.org/2000/svg" width="17" height="44" fill="none"><path fill="#fff" d="M1.332 22.244c0 .186.032.358.097.516.071.157.179.308.322.45l8.368 8.186a1.2 1.2 0 0 0 .881.366c.236 0 .448-.058.634-.172.193-.108.347-.258.462-.451.114-.186.172-.394.172-.623 0-.344-.133-.648-.398-.913l-7.54-7.359 7.54-7.358c.265-.265.398-.566.398-.903 0-.236-.058-.447-.172-.633a1.24 1.24 0 0 0-.462-.44 1.185 1.185 0 0 0-.634-.173 1.22 1.22 0 0 0-.88.355L1.75 21.277a1.55 1.55 0 0 0-.322.451c-.065.158-.097.33-.097.516Z"/></svg>