<svg xmlns="http://www.w3.org/2000/svg" width="70" height="70" fill="none"><circle cx="35" cy="35" r="35" fill="#C8A200"/><path fill="#fff" d="M20.938 39.688h10.937c.938 0 1.563-.626 1.563-1.563v-12.5c0-.938-.626-1.563-1.563-1.563H20.937c-.937 0-1.562.625-1.562 1.563v12.5c0 .938.625 1.563 1.563 1.563Zm1.562-12.5h7.813v9.375H22.5v-9.376Zm16.25 0h8.125c.313 0 .625-.313.625-.625v-1.875c0-.313-.313-.625-.625-.625H38.75c-.313 0-.625.312-.625.625v1.875c0 .312.313.625.625.625Zm0 4.687H50c.313 0 .625-.313.625-.625v-1.875c0-.313-.313-.625-.625-.625H38.75c-.313 0-.625.313-.625.625v1.875c0 .313.313.625.625.625Zm0 4.688h5c.313 0 .625-.313.625-.626v-1.874c0-.313-.313-.626-.625-.626h-5c-.313 0-.625.313-.625.626v1.874c0 .313.313.626.625.626Zm-.469 3.124H50.47c.156 0 .156 0 .156-.156v-1.25c0-.156 0-.156-.156-.156H38.28c-.156 0-.156 0-.156.156l.156 1.407c-.156 0-.156 0 0 0Zm18.594-26.562H36.562v-1.25a.336.336 0 0 0-.312-.313h-2.5a.336.336 0 0 0-.313.313v1.25H13.125c-.938 0-1.563.625-1.563 1.563v4.687c0 .938.626 1.563 1.563 1.563V47.5c0 .938.625 1.563 1.563 1.563h18.75v1.874l-5.782 5.782c-.625.625-.625 1.562 0 2.187.625.625 1.563.625 2.188 0L35 53.75l5.156 5.156c.625.625 1.563.625 2.188 0 .625-.625.625-1.562 0-2.187l-5.782-5.782v-1.874h18.75c.938 0 1.563-.626 1.563-1.563V20.937c.938 0 1.563-.625 1.563-1.562v-4.688c0-.937-.626-1.562-1.563-1.562ZM14.687 16.25h40.626v1.563H14.687V16.25ZM53.75 45.938h-37.5v-25h37.5v25Z"/></svg>