<svg xmlns="http://www.w3.org/2000/svg" width="56" height="56" fill="none"><path fill="#fff" d="M28 45.5c-8.556 0-16.189-5.4-22.882-15.947a2.895 2.895 0 0 1 0-3.106C11.811 15.9 19.444 10.5 28 10.5c8.556 0 16.189 5.4 22.882 15.947a2.895 2.895 0 0 1 0 3.106C44.189 40.1 36.556 45.5 28 45.5ZM28 14c-7.083 0-13.642 4.586-19.694 14C14.358 37.414 20.917 42 28 42c7.083 0 13.642-4.586 19.694-14C41.642 18.586 35.083 14 28 14Zm0 22.167c-4.55 0-8.24-3.657-8.24-8.167s3.69-8.167 8.24-8.167c4.55 0 8.24 3.657 8.24 8.167s-3.69 8.167-8.24 8.167Zm0-3.5c2.6 0 4.709-2.09 4.709-4.667S30.6 23.333 28 23.333c-2.6 0-4.709 2.09-4.709 4.667S25.4 32.667 28 32.667Z"/></svg>