<svg xmlns="http://www.w3.org/2000/svg" width="70" height="70" fill="none"><circle cx="35" cy="35" r="35" fill="#0070C0"/><g clip-path="url(#a)"><path fill="#fff" d="M53.39 26.387H39.122a1.058 1.058 0 0 0-1.074 1.043c0 .575.482 1.043 1.074 1.043H53.39c.592 0 1.073-.466 1.073-1.043a1.058 1.058 0 0 0-1.073-1.043Zm0 5.188H39.122a1.058 1.058 0 0 0-1.074 1.043c0 .577.482 1.044 1.074 1.044H53.39c.592 0 1.073-.467 1.073-1.044a1.058 1.058 0 0 0-1.073-1.043Zm0 5.345H39.122a1.058 1.058 0 0 0-1.074 1.043c0 .577.482 1.044 1.074 1.044H53.39c.592 0 1.073-.467 1.073-1.044a1.058 1.058 0 0 0-1.073-1.043Zm0 5.188H39.122a1.06 1.06 0 0 0-1.074 1.044c0 .576.482 1.043 1.074 1.043H53.39c.592 0 1.073-.467 1.073-1.043a1.058 1.058 0 0 0-1.073-1.044Zm2.68-22.183c1.093 0 1.98.863 1.98 1.925v27.3c0 1.062-.887 1.925-1.98 1.925H13.96c-1.092 0-1.98-.863-1.98-1.925v-27.3c0-1.062.888-1.925 1.98-1.925H56.07Zm0-1.925H13.96C11.781 18 10 19.733 10 21.85v27.3c0 2.117 1.781 3.85 3.959 3.85H56.07c2.178 0 3.96-1.733 3.96-3.85v-27.3c0-2.117-1.782-3.85-3.96-3.85ZM34.561 34.315H30.86a.75.75 0 0 0-.76.742v.233a.75.75 0 0 0 .76.742h3.702a.751.751 0 0 0 .76-.744v-.231a.748.748 0 0 0-.76-.742Zm-8.592-6.373c-1.15.891-3.56 2.141-5.294 3.341h-.004c-.02.014-.04.079-.058.09-.205.112-.299.422-1.41.422h-2.174c-.558 0-.904.255-.904.827v5.09c0 .573.317.855.904.855h2.181c1.11.001 1.2.31 1.403.421.02.012.038.079.06.09 1.68 1.2 4.106 2.547 5.296 3.4.359.259 1.551.71 1.551-.88V28.755c0-1.592-1.202-1.083-1.55-.813Zm3.419 3.51c.198.336.587.421.872.188l3.044-2.495c.283-.233.355-.695.158-1.033l-.11-.19c-.197-.339-.587-.424-.87-.19l-3.044 2.495c-.285.233-.357.695-.16 1.033l.112.192h-.002Zm.872 7.266c-.285-.233-.675-.15-.872.189l-.11.19c-.197.338-.125.8.158 1.033l3.044 2.495c.283.233.674.15.87-.188l.112-.19c.197-.339.125-.8-.158-1.034l-3.044-2.495Z"/></g><defs><clipPath id="a"><path fill="#fff" d="M10 18h50v35H10z"/></clipPath></defs></svg>