<svg xmlns="http://www.w3.org/2000/svg" width="70" height="70" fill="none"><circle cx="35" cy="35" r="35" fill="#D32F2F"/><path fill="#fff" d="m46.365 27.017 1.276 1.276H34.263a2.097 2.097 0 1 0 0 4.196h18.364c.027 0 .059.009.086.009a2.099 2.099 0 0 0 2.098-2.102v-.005c0-.054-.014-.108-.018-.162a2.13 2.13 0 0 0-.023-.238 2.095 2.095 0 0 0-.112-.373c0-.004 0-.009-.005-.013a2.061 2.061 0 0 0-.507-.741l-4.816-4.812a2.099 2.099 0 0 0-2.965 0 2.099 2.099 0 0 0 0 2.965Zm6.563 10.499h-18.45c-.022 0-.044.004-.062.004a2.085 2.085 0 0 0-1.635.598 2.098 2.098 0 0 0 0 2.964l4.86 4.861a2.096 2.096 0 1 0 2.965-2.965l-1.276-1.276h13.598a2.097 2.097 0 0 0 2.098-2.097c0-1.15-.939-2.09-2.098-2.09ZM42.646 50.934H19.169V19.066H42.65v2.516h4.191v-2.848c0-2.08-1.343-3.859-3.423-3.859H18.891c-2.08 0-3.913 1.779-3.913 3.859v32.541c0 2.08 1.833 3.85 3.913 3.85h24.527c2.08 0 3.423-1.77 3.423-3.85v-7.888h-4.19v7.547h-.005Z"/></svg>