<svg xmlns="http://www.w3.org/2000/svg" width="68" height="68" fill="none"><path fill="#FCEC00" d="M20.666 8.553S25.759-2.337 39.259.717c1.993.797 6.727 3.055 9.516 9.21.532 1.017 1.15 2.478 4.45 2.677 3.3.2 11.667 6.13 12.816 13.879.18 1.242 1.315 8.666-3.998 15.24-.83.93-2.922 2.191-1.66 6.674.166 1.826 1.03 10.226-6.94 16.668-1.626 1.062-7.37 4.516-15.073 1.627-2.258-1.162-3.985-2.889-7.272-.498-3.287 1.295-10.094 3.287-16.734-1.86-2.59-2.69-6.907-7.205-6.442-14.443.2-1.893.598-4.05.598-4.05s.564-1.96-1.594-3.985C4.834 39 .916 33.356 2.411 26.483c.398-1.527 2.49-12.518 14.775-14.41 1.169-.266 2.444-.233 3.48-3.52Z"/><path fill="#007C3C" d="M22.153 14.165S21.848 3.851 33.51 1.101C34.73.976 42.919.618 46.55 9.961c.531 1.68.73 3.3.664 5.346.046.332.013 1.74 1.826.876 9.177-3.619 15.918 5.08 16.582 10.692.365 5.81-1.063 12.45-8.6 15.44-.73.165-2.457.43-.432 2.888 2.358 3.22 4.948 11.289-1.46 18.062-.598.565-9.975 9.031-18.594-1.281-.996-1.66-1.494-2.265-1.494-2.265s-.412-.73-1.13.166c-.51.81-4.933 9.888-16.182 5.857-1.774-.843-8.587-4.03-7.836-15.386.186-1.01.843-3.805 3.14-6.395.246-.332 1.309-1.262-.444-1.86-6.243-1.68-8.852-8.148-9.337-11.401-.485-3.254.173-10.732 7.637-14.563 1.175-.352 4.734-2.172 9.476-.2.352.113 1.746 1.063 1.786-1.772Z"/><path fill="#FCEC00" d="M34.385 19.377c-9.569 0-17.325 8.36-17.325 18.674 0 10.313 7.756 18.673 17.325 18.673 9.57 0 17.326-8.36 17.326-18.673 0-10.313-7.75-18.674-17.326-18.674Zm0 35.627c-8.686 0-15.731-7.59-15.731-16.953 0-9.364 7.045-16.954 15.731-16.954s15.732 7.59 15.732 16.954c0 .936-.073 1.86-.206 2.756-1.222 8.055-7.703 14.197-15.526 14.197Z"/><path fill="#007C3C" d="m48.902 31.59 1.8-.153s1.374 3.725 1.088 7.158l-1.74.06s.22-3.42-1.148-7.066Z"/><path fill="#FCEC00" d="M29.664 10.745c0 1.409.475 2.76 1.322 3.756.847.996 1.996 1.556 3.193 1.556 1.198 0 2.346-.56 3.193-1.556s1.323-2.348 1.323-3.756c0-1.41-.476-2.76-1.323-3.757-.846-.996-1.995-1.556-3.193-1.556-1.197 0-2.346.56-3.193 1.556s-1.322 2.348-1.322 3.756ZM29.212 17.65h8.5l-2.643 9.835-4.86 18.09s-.233 1.427-1.561 1.826c-1.96-.067-13.315 0-13.315 0l1.162-4.748h4.815c.026 0 .046 0 .073-.007l.578-.126a.743.743 0 0 0 .371-.193l.346-.312a.123.123 0 0 0 .046-.08l6.488-24.284Z"/><path fill="#FCEC00" d="m34.863 27.691 5.18.18s6.594.445 5.18 8.679c-.22.664-.585 1.68-2.989 2.802-.378.166-.411.512-.411.512l.491 2.33s.186.432.784.518c.617.054 1.992.133 1.992.133h1.03l-1.15 4.57h-8.945s-1.082-.187-1.261-1.747c-.339-1.827-1.813-7.843-2.006-8.633-.013-.047-.06-.08-.106-.073l-.126.013.491-2.656s2.145.896 3.732-.545c.432-.531 1.474-2.012-.478-3.805 0 0-.677-.498-1.873-.385l.465-1.893Z"/></svg>