<svg xmlns="http://www.w3.org/2000/svg" width="70" height="70" fill="none"><circle cx="35" cy="35" r="35" fill="#7030A0"/><path fill="#fff" d="M34.058 17.416a7.783 7.783 0 0 0-7.784 7.784c0 4.3 3.484 7.784 7.784 7.784s7.784-3.49 7.784-7.784c0-4.3-3.484-7.784-7.784-7.784Zm-.032 25.947s-11.19-12.468-11.19-18.647c0-6.18 5.011-11.19 11.19-11.19 6.18 0 11.19 5.01 11.19 11.19 0 6.179-11.19 18.647-11.19 18.647Zm0-14.92a3.732 3.732 0 1 1 .001-7.465 3.732 3.732 0 0 1 0 7.464Z"/><path fill="#fff" d="M14.505 56.368c-.326 0-.652-.1-.92-.3a1.581 1.581 0 0 1-.659-1.279V30.88c0-.705.469-1.327 1.148-1.521l4.937-1.4a1.576 1.576 0 0 1 1.947 1.09 1.576 1.576 0 0 1-1.09 1.947l-3.79 1.073v20.527l9.054-3.016c.284-.095.584-.105.873-.037l14.853 3.616 12.079-3.442.352-20-3.12.942A1.578 1.578 0 0 1 48.2 29.6a1.578 1.578 0 0 1 1.058-1.969l5.195-1.568a1.576 1.576 0 0 1 1.41.253c.4.305.637.784.627 1.29l-.411 23.336c-.01.695-.479 1.3-1.147 1.49l-13.606 3.873a1.607 1.607 0 0 1-.805.016l-14.81-3.605-10.706 3.573a1.628 1.628 0 0 1-.5.08Z"/></svg>