<svg xmlns="http://www.w3.org/2000/svg" width="56" height="56" fill="none"><path fill="#fff" d="m14.082 17.631 11.789-7.276c1.366-.843 3.165-.433 4.019.916.29.457.443.987.443 1.526v30.406c0 1.591-1.306 2.88-2.916 2.88a2.947 2.947 0 0 1-1.546-.437l-11.79-7.277H8.75c-2.255 0-4.083-1.806-4.083-4.033V21.664c0-2.227 1.828-4.033 4.083-4.033h5.332Zm1.429 3.194c-.279.172-.6.263-.928.262H8.75a.58.58 0 0 0-.583.577v12.673a.58.58 0 0 0 .583.576h5.833c.328 0 .65.091.928.263l11.322 6.987V13.837l-11.322 6.988ZM43.8 45.372a1.765 1.765 0 0 1-2.475-.042 1.713 1.713 0 0 1 .042-2.444c8.622-8.228 8.622-21.545 0-29.773a1.716 1.716 0 0 1-.042-2.444 1.766 1.766 0 0 1 2.475-.041c10.045 9.587 10.045 25.157 0 34.744Zm-5.847-6.901a1.765 1.765 0 0 1-2.474-.067 1.712 1.712 0 0 1 .068-2.443c4.715-4.408 4.715-11.515 0-15.923a1.714 1.714 0 0 1-.068-2.444 1.766 1.766 0 0 1 2.474-.066c6.174 5.772 6.174 15.171 0 20.943Z"/></svg>